<?xml version="1.0" encoding="utf-8"?>
<!-- Generator: Adobe Illustrator 24.0.1, SVG Export Plug-In . SVG Version: 6.00 Build 0)  -->



<svg version="1.1" id="Layer_1" xmlns="http://www.w3.org/2000/svg" xmlns:xlink="http://www.w3.org/1999/xlink" x="0px" y="0px"
	 viewBox="0 0 1920 923" style="enable-background:new 0 0 1920 923;" xml:space="preserve">
<style type="text/css">
	.st0{opacity:0.7;}
	.st1{fill:#AF8BEA;}
	.st2{fill:#FFFFFF;}
</style>

<g class="st0" transform="translate(0,-74.749984)">
	<path class="st1" d="M0.2,0v776H1247l-42.7-7.7l-35.2-5.4l2.8-0.4l-164.5-29.6l-1.2,0.5l-0.6-1.4l6.9-3.4l240.2-148.1l0,0
		l-127.7-103.1l66.7,14.7l-8.5-11.6c-3.7,0.7-7.7,0.8-11.6,0.2c-19.7-2.8-33.8-21.4-31.2-41.1c0.2-1.7,0.6-3.4,1.1-5l-66.2-84.5
		l-49.9-313.8l238.7,267.9l52.4-79.9c-15.2-11.6-24.1-30.7-21.4-50.8c3.6-27,31.2-51.6,62-47.1c29.5,4.2,50.2,31.6,46.2,61.3
		c-4.1,30.5-31.5,51.5-61.7,47.2c-6.7-1-12.9-3.2-18.5-6.3l-53.5,81.7l137.6,154.5l42.8,4.5L1341.4,362l177.9-121.9l-73.9,15.3
		l142.8-62.5l7.8-5.4l81,9.3l35.5,3.2l-2.8,0.6l166,19l1.2-0.5l0.7,1.4l-6.7,3.8l-230.2,163.1l134.1,94.8l-57.7-8.9
		c5.3,5.8,8.7,13.4,9.4,21.6l23.4,28l2.6,2.1l-4.9-14.1l84.8,95.1l38.3,170h49.5V0H0.2z"/>
	<path class="st1" d="M1458.8,478l-44-4.6l135,151.6l-185.4,110.3l74.8-10.6L1297.9,776H1488c0-2,0.2-4.1,0.4-6.1
		c3.6-27,31.2-51.6,62-47.1c4.4,0.6,8.6,1.8,12.5,3.4l49.4-96.5L1458.8,478z"/>
	<path class="st1" d="M1578.9,736c11.1,10,18,24.4,18.2,40h163.4l-134.2-132.5L1578.9,736z"/>
</g>
<path class="st2" d="M1870.9,777l31.3,139l-140.7-139h-164.4c0,2.3-0.2,4.7-0.5,7c-4.1,30.5-31.5,51.5-61.7,47.2
	c-27-3.9-46.9-27.5-46.9-54.2h-192.8l-2.4,0.9l-8.2,4.9l-32-5.7H0.2v147h1920V777H1870.9z"/>
</svg>
